<svg width="21" height="32" viewBox="0 0 21 32" fill="none" xmlns="http://www.w3.org/2000/svg">
<path fill-rule="evenodd" clip-rule="evenodd" d="M10.5 19.6968C15.1888 19.6968 19 15.8829 19 11.1657C19 6.44853 15.1888 2.63461 10.5 2.63461C5.81115 2.63461 2 6.44853 2 11.1657C2 15.8829 5.81115 19.6968 10.5 19.6968ZM21 11.1657C21 15.2041 18.7336 18.7115 15.407 20.4784C13.5818 21.4479 12 23.1247 12 25.1914V25.8462C12 27.7792 13.567 29.3462 15.5 29.3462H18C18.5523 29.3462 19 29.7939 19 30.3462C19 30.8984 18.5523 31.3462 18 31.3462H4C3.44772 31.3462 3 30.8984 3 30.3462C3 29.7939 3.44772 29.3462 4 29.3462H6.5C8.433 29.3462 10 27.7791 10 25.8462V25.4256C10 23.3319 8.29731 21.6779 6.37329 20.8523C2.62579 19.2442 0 15.5125 0 11.1657C0 5.34954 4.70101 0.634613 10.5 0.634613C16.299 0.634613 21 5.34954 21 11.1657Z" fill="black"/>
</svg>
